<svg xmlns="http://www.w3.org/2000/svg" viewBox="0 0 60 60" fill="none">
  <rect width="60" height="60" rx="8" fill="#1E40AF"/>
  <path d="M15 30c0-8.284 6.716-15 15-15s15 6.716 15 15-6.716 15-15 15" stroke="#60A5FA" stroke-width="3" stroke-linecap="round"/>
  <path d="M22 30c0-4.418 3.582-8 8-8s8 3.582 8 8-3.582 8-8 8" stroke="#93C5FD" stroke-width="2.5" stroke-linecap="round"/>
  <circle cx="30" cy="30" r="3" fill="#BFDBFE"/>
  <path d="M30 45v5M30 10v5M15 30h-5M50 30h5" stroke="#60A5FA" stroke-width="2" stroke-linecap="round"/>
  <path d="M20.5 20.5l-3-3M39.5 39.5l3 3M20.5 39.5l-3 3M39.5 20.5l3-3" stroke="#93C5FD" stroke-width="1.5" stroke-linecap="round"/>
</svg>
